<svg version="1.1" id="svg2" xmlns:cc="http://creativecommons.org/ns#" xmlns:dc="http://purl.org/dc/elements/1.1/" xmlns:rdf="http://www.w3.org/1999/02/22-rdf-syntax-ns#" xmlns:svg="http://www.w3.org/2000/svg" xmlns="http://www.w3.org/2000/svg" xmlns:xlink="http://www.w3.org/1999/xlink" x="0px" y="0px" viewBox="1778.6 262.7 439.2 439.2" style="enable-background:new 1778.6 262.7 439.2 439.2;" xml:space="preserve">
 <style type="text/css">
  .st0{fill:#FFD100;}
 </style>
 <g id="g14">
  <g id="g28" transform="translate(729.9419,829)">
   <path id="path30" class="st0" d="M1175.3-566.3h185.8c44.1,0,60,4.6,76.1,13.2c16.1,8.6,28.7,21.3,37.4,37.4
			c8.6,16.1,13.2,32.1,13.2,76.1v185.8c0,44.1-4.6,60-13.2,76.1c-8.6,16.1-21.3,28.7-37.4,37.4c-16.1,8.6-32.1,13.2-76.1,13.2
			h-185.8c-44.1,0-60-4.6-76.1-13.2c-16.1-8.6-28.7-21.3-37.4-37.4c-8.6-16.1-13.2-32.1-13.2-76.1v-185.8c0-44.1,4.6-60,13.2-76.1
			c8.6-16.1,21.3-28.7,37.4-37.4C1115.3-561.7,1131.3-566.3,1175.3-566.3">
   </path>
  </g>
  <g id="g32" transform="translate(743.0898,638.6733)">
   <path id="path34" d="M1179.7-122.2c14.2,17.1,40.6,28,69.2,30.2l-9.8,17.1c-26.4-3.1-56.8-15.5-73.7-37.3
			c-15.7,21.8-45.5,35.1-82.8,37.9l5.8-18.4c25.3-0.4,51.5-13.5,62.8-29.5h-66.3v-15.8h70.6V-153h-66.6v-15.7h66.6v-12.2h-66.6
			v-15.7h66.6v-12.7h-70.6v-15.8h28.6l-1.6-13.5h19.8c0.7,4.4,1.3,8.9,2,13.5h63.5c0.9-4.6,1.5-9.1,1.8-13.5h20.2
			c-0.4,4.4-0.9,8.9-1.6,13.5h28.6v15.8H1175v12.7h66.6v15.7H1175v12.2h66.6v15.7H1175v14.9h71.2v15.8H1179.7z">
   </path>
  </g>
  <g id="g36" transform="translate(831.8193,682.9077)">
   <path id="path38" d="M1209.3-225.5v-15.3h63.5v-13.8h18.7v13.8h17.8v15.3h-17.8v43.1c0,14.7-1.8,25.7-5.8,37h-20.4
			c6.2-13.1,7.5-22.4,7.5-36.4v-43.7h-17.1c-2.5,28.2-13.5,63.2-24.9,80.1H1210c11.1-15.7,23.8-46.2,26.9-80.1H1209.3z
			 M1317.8-263.3h-118.1v126.7h118.1V-263.3z M1336.9-269.5v149.1h-146.2c-6.6,0-10.2-3.6-10.2-10v-149.1h146
			C1333.1-279.5,1336.9-275.8,1336.9-269.5">
   </path>
  </g>
 </g>
</svg>